<?xml version="1.0" encoding="UTF-8" standalone="no"?>
<!DOCTYPE svg PUBLIC "-//W3C//DTD SVG 1.1//EN" "http://www.w3.org/Graphics/SVG/1.1/DTD/svg11.dtd">
<svg xmlns="http://www.w3.org/2000/svg" version="1.1" viewBox="0.00 0.00 1040.00 1120.00">
<g stroke-width="2.00" fill="none" stroke-linecap="butt">
<path stroke="#806011" vector-effect="non-scaling-stroke" d="
  M 531.52 551.55
  C 547.48 577.38 569.66 597.19 596.99 610.19
  Q 659.05 639.73 728.06 634.32
  C 782.88 630.03 836.85 601.80 859.03 548.94"
/>
<path stroke="#806a13" vector-effect="non-scaling-stroke" d="
  M 859.03 548.94
  Q 872.80 514.72 869.49 476.95
  Q 869.38 475.70 868.37 475.64
  A 0.97 0.95 21.9 0 0 867.58 475.97
  C 864.95 478.98 862.30 482.31 859.49 484.75
  C 846.77 495.81 830.43 499.21 814.21 494.98
  C 782.82 486.80 763.40 451.14 765.07 420.37
  C 766.57 392.95 778.08 374.43 803.22 362.36
  A 1.07 1.06 -39.4 0 0 803.40 360.55
  Q 776.25 340.16 743.83 329.90
  Q 741.27 329.09 739.64 330.93
  A 1.48 1.46 66.8 0 0 739.28 331.84
  Q 738.85 342.17 738.81 352.60
  C 738.77 360.53 729.43 359.27 729.42 354.00
  Q 729.39 341.80 728.62 329.64
  C 728.50 327.75 727.83 326.62 726.01 326.18
  Q 697.64 319.34 668.66 323.10
  Q 668.09 323.17 667.84 323.69
  Q 667.32 324.78 667.66 326.57
  C 670.16 339.95 672.05 346.40 676.97 359.46
  Q 678.08 362.40 677.86 364.08
  C 677.21 369.20 670.92 368.90 668.78 365.32
  C 662.89 355.41 658.97 342.43 656.53 331.58
  C 655.60 327.43 654.19 325.02 649.54 326.05
  Q 580.69 341.25 540.54 398.81
  C 509.45 443.39 502.33 503.92 531.52 551.55"
/>
<path stroke="#ffca24" vector-effect="non-scaling-stroke" d="
  M 859.03 548.94
  Q 852.11 554.10 846.46 560.38
  Q 845.16 561.83 843.01 563.02
  C 838.18 565.69 835.98 568.71 834.39 574.31
  Q 832.64 580.44 829.12 585.84
  A 2.41 2.41 0.0 0 1 826.01 586.68
  L 820.76 584.02
  Q 820.20 583.73 819.67 584.08
  L 817.26 585.70
  A 1.28 1.27 -27.1 0 1 815.35 585.09
  C 814.64 583.19 814.09 581.58 812.13 580.60
  Q 805.62 577.34 798.25 577.05
  Q 797.65 577.03 797.27 576.56
  L 795.84 574.76
  A 0.75 0.74 -35.7 0 0 794.85 574.60
  C 792.04 576.45 789.24 578.68 786.16 579.54
  Q 777.25 582.03 771.06 575.12"
/>
<path stroke="#806a13" vector-effect="non-scaling-stroke" d="
  M 771.06 575.12
  Q 804.32 570.49 813.91 539.33
  C 815.69 533.53 814.51 525.80 806.64 528.01
  C 803.86 528.79 802.14 534.53 800.99 537.75
  C 791.87 563.16 761.90 570.27 742.95 551.05
  C 738.70 546.73 733.80 537.47 726.88 544.90
  Q 725.72 546.15 725.51 547.90
  Q 725.45 548.40 725.71 548.82
  L 730.98 557.22"
/>
<path stroke="#ffca24" vector-effect="non-scaling-stroke" d="
  M 730.98 557.22
  Q 702.41 554.74 694.25 554.95
  C 673.59 555.46 653.82 554.29 633.36 551.56
  Q 616.81 549.34 600.12 549.91
  Q 581.73 550.53 580.36 550.49
  Q 562.49 550.06 544.94 546.31
  C 540.43 545.34 539.85 547.97 537.01 549.58
  Q 534.45 551.04 531.52 551.55"
/>
<path stroke="#806011" vector-effect="non-scaling-stroke" d="
  M 771.06 575.12
  Q 746.78 574.08 730.98 557.22"
/>
<path stroke="#51504e" stroke-opacity="0.937" vector-effect="non-scaling-stroke" d="
  M 801.74 372.32
  Q 774.27 385.77 772.22 416.42"
/>
<path stroke="#7e7e7e" vector-effect="non-scaling-stroke" d="
  M 772.22 416.42
  Q 768.73 458.24 801.22 480.78
  Q 817.14 491.83 835.59 487.42
  C 858.40 481.96 872.81 459.79 873.49 437.25
  C 874.66 398.89 844.88 356.26 801.74 372.32"
/>
<path stroke="#d7d6d5" stroke-opacity="0.937" vector-effect="non-scaling-stroke" d="
  M 772.22 416.42
  Q 774.07 417.38 776.90 416.52"
/>
<path stroke="#d7d6d5" stroke-opacity="0.937" vector-effect="non-scaling-stroke" d="
  M 777.09 417.60
  Q 776.45 418.64 777.56 420.17
  Q 778.02 420.81 778.24 420.05
  L 779.04 417.38
  A 0.84 0.83 -86.5 0 1 779.69 416.80
  C 786.02 415.67 784.36 422.20 788.42 421.47
  Q 788.96 421.37 789.35 421.77
  L 791.28 423.77"
/>
<path stroke="#7e7e7e" vector-effect="non-scaling-stroke" d="
  M 791.28 423.77
  L 792.67 437.22"
/>
<path stroke="#d7d6d5" stroke-opacity="0.937" vector-effect="non-scaling-stroke" d="
  M 792.67 437.22
  C 787.47 448.81 795.51 450.22 798.44 459.06
  C 799.36 461.82 805.59 469.16 808.96 466.08
  Q 809.32 465.76 809.79 465.75
  Q 813.27 465.65 816.07 463.84"
/>
<path stroke="#7e7e7e" vector-effect="non-scaling-stroke" d="
  M 816.07 463.84
  C 828.22 467.13 840.67 465.07 847.60 453.63
  C 860.39 432.49 855.18 410.72 835.63 396.57
  C 817.40 383.37 798.05 396.90 791.87 415.43"
/>
<path stroke="#d7d6d5" stroke-opacity="0.937" vector-effect="non-scaling-stroke" d="
  M 791.87 415.43
  Q 790.68 405.55 793.01 396.55
  A 1.56 1.50 -13.8 0 1 793.51 395.76
  Q 799.21 391.04 803.11 384.81
  C 805.21 381.48 807.92 379.65 810.50 376.89
  A 1.31 1.31 0.0 0 0 809.86 374.73
  Q 807.29 374.08 804.84 374.88
  Q 804.36 375.04 803.94 374.78
  Q 802.60 373.96 801.74 372.32"
/>
<path stroke="#51504e" stroke-opacity="0.937" vector-effect="non-scaling-stroke" d="
  M 791.87 415.43
  Q 792.81 419.37 791.28 423.77"
/>
<path stroke="#51504e" stroke-opacity="0.937" vector-effect="non-scaling-stroke" d="
  M 816.07 463.84
  Q 799.02 455.20 792.67 437.22"
/>
<path stroke="#806a13" vector-effect="non-scaling-stroke" d="
  M 520.69 615.56
  Q 591.73 666.11 677.75 676.76
  C 681.77 677.26 682.96 675.57 683.00 671.75
  Q 683.13 660.45 682.71 649.65
  A 1.64 1.63 -88.4 0 0 681.24 648.09
  Q 641.64 644.31 604.36 629.84
  Q 546.69 607.46 516.77 554.06
  C 513.97 549.06 511.24 542.95 508.48 537.39
  C 506.59 533.56 504.48 530.96 500.15 531.31
  C 495.65 531.67 494.95 534.63 496.87 538.34
  Q 514.16 571.73 518.44 612.01
  Q 518.67 614.13 520.69 615.56"
/>
<path stroke="#806011" vector-effect="non-scaling-stroke" d="
  M 350.87 736.07
  Q 394.88 798.56 462.18 835.56
  Q 467.30 838.38 473.69 837.65
  Q 515.06 832.91 552.77 815.15
  A 0.52 0.51 -44.5 0 0 552.78 814.22
  L 510.74 793.82"
/>
<path stroke="#806a13" vector-effect="non-scaling-stroke" d="
  M 510.74 793.82
  Q 470.05 772.49 435.50 742.24
  C 396.83 708.39 369.08 667.26 349.80 619.71
  Q 349.60 619.23 349.24 618.86
  L 347.24 616.87
  A 1.08 0.99 -10.4 0 0 346.86 616.63
  L 319.25 607.30
  Q 318.81 607.15 318.38 607.31
  Q 304.80 612.15 305.97 625.98
  Q 306.86 636.44 310.25 650.83
  C 317.47 681.49 332.01 710.74 350.87 736.07"
/>
<path stroke="#ffca24" vector-effect="non-scaling-stroke" d="
  M 510.74 793.82
  Q 510.72 794.45 510.14 795.03
  Q 509.86 795.31 509.47 795.31
  Q 502.29 795.39 495.56 793.02
  A 1.77 1.76 -9.1 0 1 494.78 792.46
  C 491.69 788.58 488.23 790.77 485.61 787.56
  C 482.63 783.91 479.18 781.93 474.59 781.00
  Q 472.08 780.49 471.06 779.69
  Q 450.22 763.27 428.68 747.77
  Q 422.26 743.15 415.92 735.59
  C 406.52 724.35 394.93 724.37 381.72 721.54
  C 370.94 719.23 366.72 721.73 358.39 727.47
  A 0.77 0.77 0.0 0 1 357.23 727.08
  L 355.76 722.79
  Q 355.52 722.09 354.78 722.17
  C 351.64 722.52 350.85 724.75 351.70 727.66
  Q 353.01 732.14 350.87 736.07"
/>
<path stroke="#806a13" vector-effect="non-scaling-stroke" d="
  M 406.61 638.02
  C 432.63 684.07 470.29 718.39 515.72 746.03
  Q 557.25 771.30 602.60 782.18
  C 608.06 783.49 612.88 783.41 617.07 780.07
  Q 645.78 757.24 665.79 724.67
  Q 665.82 724.62 666.74 723.36
  Q 667.56 722.23 667.23 721.26
  A 2.79 2.79 0.0 0 0 665.00 719.40
  Q 587.80 707.96 521.07 668.42
  C 511.22 662.58 500.71 655.32 490.72 648.51
  C 488.34 646.88 482.87 645.03 479.26 644.38
  Q 442.90 637.91 406.08 630.81
  A 1.66 1.66 0.0 0 0 404.10 632.50
  C 404.16 634.02 405.90 636.76 406.61 638.02"
/>
<path stroke="#806011" vector-effect="non-scaling-stroke" d="
  M 270.74 679.28
  C 246.23 738.23 270.65 800.57 329.40 826.15
  C 347.30 833.94 366.66 839.20 386.17 840.56
  A 1.06 1.06 0.0 0 0 386.91 838.68
  Q 308.93 775.66 273.84 682.22
  Q 273.17 680.45 272.43 679.17
  A 0.94 0.94 0.0 0 0 270.74 679.28"
/>
<path stroke="#806a13" vector-effect="non-scaling-stroke" d="
  M 698.7696 531.5151
  A 77.83 68.07 81.6 0 0 754.7398 444.5761
  A 77.83 68.07 81.6 0 0 676.0304 377.5249
  A 77.83 68.07 81.6 0 0 620.0602 464.4639
  A 77.83 68.07 81.6 0 0 698.7696 531.5151"
/>
<path stroke="#51504e" stroke-opacity="0.937" vector-effect="non-scaling-stroke" d="
  M 681.50 519.27
  L 676.70 521.27
  A 0.44 0.44 0.0 0 0 676.74 522.10
  C 686.56 524.99 695.36 524.41 704.70 520.85
  C 708.50 519.41 712.95 518.54 715.93 516.91
  Q 722.36 513.39 726.49 506.89"
/>
<path stroke="#252524" stroke-opacity="0.816" vector-effect="non-scaling-stroke" d="
  M 702.55 495.65
  Q 687.71 498.41 672.50 493.25
  Q 671.66 492.97 671.12 493.58"
/>
<path stroke="#7e7e7e" vector-effect="non-scaling-stroke" d="
  M 828.3020 425.0420
  A 15.52 12.81 76.2 0 0 837.0402 406.9144
  A 15.52 12.81 76.2 0 0 820.8980 394.8980
  A 15.52 12.81 76.2 0 0 812.1598 413.0256
  A 15.52 12.81 76.2 0 0 828.3020 425.0420"
/>
<path stroke="#7e7e7e" vector-effect="non-scaling-stroke" d="
  M 844.1992 425.9819
  A 5.50 4.37 75.8 0 0 847.0865 419.5780
  A 5.50 4.37 75.8 0 0 841.5008 415.3181
  A 5.50 4.37 75.8 0 0 838.6135 421.7220
  A 5.50 4.37 75.8 0 0 844.1992 425.9819"
/>
<path stroke="#7e7e7e" vector-effect="non-scaling-stroke" d="
  M 706.92 448.94
  C 707.96 458.87 722.97 452.11 715.43 443.10
  C 712.42 439.50 706.49 444.87 706.92 448.94"
/>
</g>
<path fill="#000000" d="
  M 519.45 404.41
  Q 559.87 335.05 638.03 314.15
  Q 644.02 312.55 650.01 311.04
  Q 652.76 310.35 652.14 306.77
  C 648.21 284.08 650.26 262.45 661.28 242.24
  C 664.51 236.31 671.14 231.34 673.10 225.28
  C 674.83 219.89 672.94 213.79 674.81 208.25
  C 679.13 195.45 689.94 187.97 702.74 184.91
  C 718.44 181.15 737.74 187.02 743.26 203.59
  C 748.20 218.41 740.22 229.18 727.43 236.00
  C 712.57 243.93 698.10 241.72 682.82 234.93
  Q 680.86 234.07 679.44 235.69
  C 663.15 254.30 663.21 278.74 663.03 302.02
  C 663.00 306.25 664.83 308.74 669.24 308.24
  Q 696.50 305.19 723.27 310.64
  C 728.78 311.76 731.75 310.38 732.15 304.62
  Q 735.51 256.97 775.34 231.33
  C 776.24 230.75 776.94 229.86 777.78 229.13
  A 1.78 1.73 79.2 0 0 778.28 228.37
  C 788.02 199.09 813.50 197.69 836.47 213.25
  Q 848.00 221.06 845.54 234.71
  C 841.87 255.07 817.74 261.08 800.80 254.50
  Q 793.66 251.72 786.15 245.17
  C 782.69 242.15 780.17 242.04 776.45 244.43
  C 770.72 248.12 766.93 250.95 762.95 256.61
  Q 746.49 279.98 742.15 309.93
  C 741.81 312.32 742.11 313.33 744.57 314.10
  Q 776.92 324.14 803.42 342.34
  C 809.99 346.85 819.52 355.06 828.60 359.62
  C 834.71 362.68 841.67 365.51 846.93 368.85
  Q 876.96 387.95 881.05 424.69
  C 882.03 433.56 880.84 446.85 882.04 457.40
  C 883.78 472.72 885.99 488.10 884.78 504.54
  C 879.19 580.02 821.91 634.51 748.79 645.43
  Q 723.17 649.26 701.00 649.78
  Q 698.32 649.85 696.88 651.43
  Q 696.51 651.83 696.51 652.37
  C 696.47 659.41 696.73 666.99 696.17 673.47
  Q 693.03 709.35 672.44 739.44
  C 655.56 764.10 634.25 785.33 609.05 801.14
  C 541.80 843.32 463.01 860.66 383.97 853.37
  Q 342.00 849.50 305.60 827.68
  C 304.74 827.16 303.24 826.92 302.26 827.07
  Q 254.42 833.94 206.99 843.23
  C 204.57 843.70 195.02 845.05 196.31 840.07
  C 196.78 838.25 199.44 836.22 201.38 835.21
  Q 233.63 818.46 266.43 802.78
  C 269.56 801.28 271.78 798.33 269.94 795.07
  Q 261.26 779.67 257.93 771.55
  C 246.76 744.33 245.47 715.74 253.98 687.69
  Q 267.91 641.71 300.36 605.85
  C 302.43 603.55 303.02 600.86 299.65 599.55
  Q 251.03 580.74 211.57 546.69
  C 188.55 526.81 170.38 503.64 160.45 474.77
  C 149.66 443.41 155.27 408.70 177.71 383.96
  C 198.60 360.92 228.43 345.65 258.75 342.99
  Q 285.16 340.66 310.50 343.49
  C 312.67 343.73 313.86 343.43 315.29 341.65
  C 338.96 312.14 369.39 300.55 406.61 307.52
  C 453.52 316.31 490.53 345.70 511.64 388.25
  C 514.06 393.14 515.28 398.79 517.11 404.18
  A 1.30 1.29 -39.3 0 0 519.45 404.41
  Z
  M 332.50 348.50
  Q 333.03 348.92 333.67 349.13
  C 386.55 366.13 421.83 404.36 450.54 451.21
  Q 473.09 488.03 487.86 517.88
  A 1.05 1.03 76.5 0 0 488.79 518.46
  L 494.42 518.53
  A 0.49 0.41 50.3 0 1 494.58 518.56
  C 503.62 522.74 500.50 511.13 499.87 506.49
  Q 495.43 473.62 505.06 442.21
  C 508.87 429.81 508.71 420.25 504.33 407.70
  C 485.44 353.48 435.58 317.54 377.68 321.11
  C 360.31 322.19 344.66 330.96 332.86 343.82
  C 331.48 345.32 330.62 347.01 332.50 348.50
  Z
  M 531.52 551.55
  C 547.48 577.38 569.66 597.19 596.99 610.19
  Q 659.05 639.73 728.06 634.32
  C 782.88 630.03 836.85 601.80 859.03 548.94
  Q 872.80 514.72 869.49 476.95
  Q 869.38 475.70 868.37 475.64
  A 0.97 0.95 21.9 0 0 867.58 475.97
  C 864.95 478.98 862.30 482.31 859.49 484.75
  C 846.77 495.81 830.43 499.21 814.21 494.98
  C 782.82 486.80 763.40 451.14 765.07 420.37
  C 766.57 392.95 778.08 374.43 803.22 362.36
  A 1.07 1.06 -39.4 0 0 803.40 360.55
  Q 776.25 340.16 743.83 329.90
  Q 741.27 329.09 739.64 330.93
  A 1.48 1.46 66.8 0 0 739.28 331.84
  Q 738.85 342.17 738.81 352.60
  C 738.77 360.53 729.43 359.27 729.42 354.00
  Q 729.39 341.80 728.62 329.64
  C 728.50 327.75 727.83 326.62 726.01 326.18
  Q 697.64 319.34 668.66 323.10
  Q 668.09 323.17 667.84 323.69
  Q 667.32 324.78 667.66 326.57
  C 670.16 339.95 672.05 346.40 676.97 359.46
  Q 678.08 362.40 677.86 364.08
  C 677.21 369.20 670.92 368.90 668.78 365.32
  C 662.89 355.41 658.97 342.43 656.53 331.58
  C 655.60 327.43 654.19 325.02 649.54 326.05
  Q 580.69 341.25 540.54 398.81
  C 509.45 443.39 502.33 503.92 531.52 551.55
  Z
  M 230.24 541.32
  C 260.95 565.25 295.15 583.38 332.06 594.82
  Q 409.79 618.91 490.48 629.58
  C 496.29 630.35 501.14 624.21 502.54 619.46
  Q 503.60 615.86 502.57 608.50
  Q 498.86 582.07 489.01 559.00
  Q 464.97 502.74 430.40 448.95
  C 396.41 396.06 346.73 355.39 280.32 357.87
  C 240.17 359.37 202.37 371.68 181.73 408.31
  C 167.85 432.96 168.68 459.16 182.08 483.93
  C 194.38 506.68 210.11 525.64 230.24 541.32
  Z
  M 801.74 372.32
  Q 774.27 385.77 772.22 416.42
  Q 768.73 458.24 801.22 480.78
  Q 817.14 491.83 835.59 487.42
  C 858.40 481.96 872.81 459.79 873.49 437.25
  C 874.66 398.89 844.88 356.26 801.74 372.32
  Z
  M 520.69 615.56
  Q 591.73 666.11 677.75 676.76
  C 681.77 677.26 682.96 675.57 683.00 671.75
  Q 683.13 660.45 682.71 649.65
  A 1.64 1.63 -88.4 0 0 681.24 648.09
  Q 641.64 644.31 604.36 629.84
  Q 546.69 607.46 516.77 554.06
  C 513.97 549.06 511.24 542.95 508.48 537.39
  C 506.59 533.56 504.48 530.96 500.15 531.31
  C 495.65 531.67 494.95 534.63 496.87 538.34
  Q 514.16 571.73 518.44 612.01
  Q 518.67 614.13 520.69 615.56
  Z
  M 350.87 736.07
  Q 394.88 798.56 462.18 835.56
  Q 467.30 838.38 473.69 837.65
  Q 515.06 832.91 552.77 815.15
  A 0.52 0.51 -44.5 0 0 552.78 814.22
  L 510.74 793.82
  Q 470.05 772.49 435.50 742.24
  C 396.83 708.39 369.08 667.26 349.80 619.71
  Q 349.60 619.23 349.24 618.86
  L 347.24 616.87
  A 1.08 0.99 -10.4 0 0 346.86 616.63
  L 319.25 607.30
  Q 318.81 607.15 318.38 607.31
  Q 304.80 612.15 305.97 625.98
  Q 306.86 636.44 310.25 650.83
  C 317.47 681.49 332.01 710.74 350.87 736.07
  Z
  M 406.61 638.02
  C 432.63 684.07 470.29 718.39 515.72 746.03
  Q 557.25 771.30 602.60 782.18
  C 608.06 783.49 612.88 783.41 617.07 780.07
  Q 645.78 757.24 665.79 724.67
  Q 665.82 724.62 666.74 723.36
  Q 667.56 722.23 667.23 721.26
  A 2.79 2.79 0.0 0 0 665.00 719.40
  Q 587.80 707.96 521.07 668.42
  C 511.22 662.58 500.71 655.32 490.72 648.51
  C 488.34 646.88 482.87 645.03 479.26 644.38
  Q 442.90 637.91 406.08 630.81
  A 1.66 1.66 0.0 0 0 404.10 632.50
  C 404.16 634.02 405.90 636.76 406.61 638.02
  Z
  M 270.74 679.28
  C 246.23 738.23 270.65 800.57 329.40 826.15
  C 347.30 833.94 366.66 839.20 386.17 840.56
  A 1.06 1.06 0.0 0 0 386.91 838.68
  Q 308.93 775.66 273.84 682.22
  Q 273.17 680.45 272.43 679.17
  A 0.94 0.94 0.0 0 0 270.74 679.28
  Z"
/>
<path fill="#ffd425" d="
  M 859.03 548.94
  Q 852.11 554.10 846.46 560.38
  Q 845.16 561.83 843.01 563.02
  C 838.18 565.69 835.98 568.71 834.39 574.31
  Q 832.64 580.44 829.12 585.84
  A 2.41 2.41 0.0 0 1 826.01 586.68
  L 820.76 584.02
  Q 820.20 583.73 819.67 584.08
  L 817.26 585.70
  A 1.28 1.27 -27.1 0 1 815.35 585.09
  C 814.64 583.19 814.09 581.58 812.13 580.60
  Q 805.62 577.34 798.25 577.05
  Q 797.65 577.03 797.27 576.56
  L 795.84 574.76
  A 0.75 0.74 -35.7 0 0 794.85 574.60
  C 792.04 576.45 789.24 578.68 786.16 579.54
  Q 777.25 582.03 771.06 575.12
  Q 804.32 570.49 813.91 539.33
  C 815.69 533.53 814.51 525.80 806.64 528.01
  C 803.86 528.79 802.14 534.53 800.99 537.75
  C 791.87 563.16 761.90 570.27 742.95 551.05
  C 738.70 546.73 733.80 537.47 726.88 544.90
  Q 725.72 546.15 725.51 547.90
  Q 725.45 548.40 725.71 548.82
  L 730.98 557.22
  Q 702.41 554.74 694.25 554.95
  C 673.59 555.46 653.82 554.29 633.36 551.56
  Q 616.81 549.34 600.12 549.91
  Q 581.73 550.53 580.36 550.49
  Q 562.49 550.06 544.94 546.31
  C 540.43 545.34 539.85 547.97 537.01 549.58
  Q 534.45 551.04 531.52 551.55
  C 502.33 503.92 509.45 443.39 540.54 398.81
  Q 580.69 341.25 649.54 326.05
  C 654.19 325.02 655.60 327.43 656.53 331.58
  C 658.97 342.43 662.89 355.41 668.78 365.32
  C 670.92 368.90 677.21 369.20 677.86 364.08
  Q 678.08 362.40 676.97 359.46
  C 672.05 346.40 670.16 339.95 667.66 326.57
  Q 667.32 324.78 667.84 323.69
  Q 668.09 323.17 668.66 323.10
  Q 697.64 319.34 726.01 326.18
  C 727.83 326.62 728.50 327.75 728.62 329.64
  Q 729.39 341.80 729.42 354.00
  C 729.43 359.27 738.77 360.53 738.81 352.60
  Q 738.85 342.17 739.28 331.84
  A 1.48 1.46 66.8 0 1 739.64 330.93
  Q 741.27 329.09 743.83 329.90
  Q 776.25 340.16 803.40 360.55
  A 1.07 1.06 -39.4 0 1 803.22 362.36
  C 778.08 374.43 766.57 392.95 765.07 420.37
  C 763.40 451.14 782.82 486.80 814.21 494.98
  C 830.43 499.21 846.77 495.81 859.49 484.75
  C 862.30 482.31 864.95 478.98 867.58 475.97
  A 0.97 0.95 21.9 0 1 868.37 475.64
  Q 869.38 475.70 869.49 476.95
  Q 872.80 514.72 859.03 548.94
  Z
  M 698.7696 531.5151
  A 77.83 68.07 81.6 0 0 754.7398 444.5761
  A 77.83 68.07 81.6 0 0 676.0304 377.5249
  A 77.83 68.07 81.6 0 0 620.0602 464.4639
  A 77.83 68.07 81.6 0 0 698.7696 531.5151
  Z"
/>
<path fill="#fcfcfc" d="
  M 772.22 416.42
  Q 774.07 417.38 776.90 416.52
  Q 776.99 417.06 777.09 417.60
  Q 776.45 418.64 777.56 420.17
  Q 778.02 420.81 778.24 420.05
  L 779.04 417.38
  A 0.84 0.83 -86.5 0 1 779.69 416.80
  C 786.02 415.67 784.36 422.20 788.42 421.47
  Q 788.96 421.37 789.35 421.77
  L 791.28 423.77
  L 792.67 437.22
  C 787.47 448.81 795.51 450.22 798.44 459.06
  C 799.36 461.82 805.59 469.16 808.96 466.08
  Q 809.32 465.76 809.79 465.75
  Q 813.27 465.65 816.07 463.84
  C 828.22 467.13 840.67 465.07 847.60 453.63
  C 860.39 432.49 855.18 410.72 835.63 396.57
  C 817.40 383.37 798.05 396.90 791.87 415.43
  Q 790.68 405.55 793.01 396.55
  A 1.56 1.50 -13.8 0 1 793.51 395.76
  Q 799.21 391.04 803.11 384.81
  C 805.21 381.48 807.92 379.65 810.50 376.89
  A 1.31 1.31 0.0 0 0 809.86 374.73
  Q 807.29 374.08 804.84 374.88
  Q 804.36 375.04 803.94 374.78
  Q 802.60 373.96 801.74 372.32
  C 844.88 356.26 874.66 398.89 873.49 437.25
  C 872.81 459.79 858.40 481.96 835.59 487.42
  Q 817.14 491.83 801.22 480.78
  Q 768.73 458.24 772.22 416.42
  Z"
/>
<path fill="#adaba8" fill-opacity="0.875" d="
  M 801.74 372.32
  Q 802.60 373.96 803.94 374.78
  Q 804.36 375.04 804.84 374.88
  Q 807.29 374.08 809.86 374.73
  A 1.31 1.31 0.0 0 1 810.50 376.89
  C 807.92 379.65 805.21 381.48 803.11 384.81
  Q 799.21 391.04 793.51 395.76
  A 1.56 1.50 -13.8 0 0 793.01 396.55
  Q 790.68 405.55 791.87 415.43
  Q 792.81 419.37 791.28 423.77
  L 789.35 421.77
  Q 788.96 421.37 788.42 421.47
  C 784.36 422.20 786.02 415.67 779.69 416.80
  A 0.84 0.83 -86.5 0 0 779.04 417.38
  L 778.24 420.05
  Q 778.02 420.81 777.56 420.17
  Q 776.45 418.64 777.09 417.60
  L 780.90 414.23
  L 783.30 414.25
  Q 783.81 414.26 784.17 414.62
  C 785.89 416.30 787.46 419.40 790.41 417.73
  Q 790.87 417.47 790.94 416.96
  C 791.23 414.92 790.46 413.17 790.41 411.45
  C 790.31 408.28 790.43 397.43 792.67 394.83
  Q 793.00 394.44 793.01 393.94
  C 793.09 390.83 790.99 389.71 788.12 389.99
  Q 779.24 390.88 777.98 399.79
  Q 775.46 405.77 775.73 411.77
  Q 775.76 412.27 776.13 412.62
  Q 778.04 414.44 776.90 416.52
  Q 774.07 417.38 772.22 416.42
  Q 774.27 385.77 801.74 372.32
  Z"
/>
<path fill="#000000" d="
  M 698.7696 531.5151
  A 77.83 68.07 81.6 0 1 620.0602 464.4639
  A 77.83 68.07 81.6 0 1 676.0304 377.5249
  A 77.83 68.07 81.6 0 1 754.7398 444.5761
  A 77.83 68.07 81.6 0 1 698.7696 531.5151
  Z
  M 681.50 519.27
  L 676.70 521.27
  A 0.44 0.44 0.0 0 0 676.74 522.10
  C 686.56 524.99 695.36 524.41 704.70 520.85
  C 708.50 519.41 712.95 518.54 715.93 516.91
  Q 722.36 513.39 726.49 506.89
  C 743.16 490.01 750.72 466.72 745.49 443.26
  C 739.93 418.32 725.60 394.93 699.73 387.74
  C 680.16 382.30 661.65 388.48 647.75 402.61
  Q 623.62 427.14 629.08 463.91
  C 629.18 464.64 629.50 464.90 630.00 465.37
  A 1.45 1.40 -72.1 0 1 630.42 466.23
  C 633.34 489.44 648.74 507.98 670.03 516.89
  C 673.69 518.42 677.51 518.39 681.50 519.27
  Z"
/>
<path fill="#60605c" fill-opacity="0.631" d="
  M 780.90 414.23
  C 782.53 408.56 783.48 403.75 777.98 399.79
  Q 779.24 390.88 788.12 389.99
  C 790.99 389.71 793.09 390.83 793.01 393.94
  Q 793.00 394.44 792.67 394.83
  C 790.43 397.43 790.31 408.28 790.41 411.45
  C 790.46 413.17 791.23 414.92 790.94 416.96
  Q 790.87 417.47 790.41 417.73
  C 787.46 419.40 785.89 416.30 784.17 414.62
  Q 783.81 414.26 783.30 414.25
  L 780.90 414.23
  Z"
/>
<path fill="#000000" d="
  M 816.07 463.84
  Q 799.02 455.20 792.67 437.22
  L 791.28 423.77
  Q 792.81 419.37 791.87 415.43
  C 798.05 396.90 817.40 383.37 835.63 396.57
  C 855.18 410.72 860.39 432.49 847.60 453.63
  C 840.67 465.07 828.22 467.13 816.07 463.84
  Z
  M 828.3020 425.0420
  A 15.52 12.81 76.2 0 0 837.0402 406.9144
  A 15.52 12.81 76.2 0 0 820.8980 394.8980
  A 15.52 12.81 76.2 0 0 812.1598 413.0256
  A 15.52 12.81 76.2 0 0 828.3020 425.0420
  Z
  M 844.1992 425.9819
  A 5.50 4.37 75.8 0 0 847.0865 419.5780
  A 5.50 4.37 75.8 0 0 841.5008 415.3181
  A 5.50 4.37 75.8 0 0 838.6135 421.7220
  A 5.50 4.37 75.8 0 0 844.1992 425.9819
  Z"
/>
<ellipse fill="#fcfcfc" cx="0.00" cy="0.00" transform="translate(824.60,409.97) rotate(76.2)" rx="15.52" ry="12.81"/>
<path fill="#000000" d="
  M 702.55 495.65
  Q 687.71 498.41 672.50 493.25
  Q 671.66 492.97 671.12 493.58
  L 670.95 492.60
  Q 670.85 492.09 670.43 491.80
  Q 645.65 474.62 650.81 444.59
  C 654.63 422.34 679.65 399.97 702.35 415.16
  C 731.95 434.96 732.93 476.29 702.55 495.65
  Z
  M 683.69 447.56
  Q 694.24 456.22 702.38 446.05
  Q 702.66 445.69 702.70 445.24
  L 702.83 443.57
  A 0.66 0.66 0.0 0 1 703.61 442.97
  Q 704.50 443.14 705.00 442.50
  Q 705.36 442.04 705.14 441.51
  Q 704.66 440.35 705.61 439.87
  Q 706.12 439.61 706.19 439.04
  Q 707.68 426.49 697.45 420.48
  C 694.05 418.48 689.60 420.58 686.67 421.19
  C 683.99 421.75 681.67 422.31 680.02 424.75
  Q 671.38 437.47 683.69 447.56
  Z
  M 706.92 448.94
  C 707.96 458.87 722.97 452.11 715.43 443.10
  C 712.42 439.50 706.49 444.87 706.92 448.94
  Z"
/>
<ellipse fill="#fcfcfc" cx="0.00" cy="0.00" transform="translate(842.85,420.65) rotate(75.8)" rx="5.50" ry="4.37"/>
<path fill="#adaba8" fill-opacity="0.875" d="
  M 792.67 437.22
  Q 799.02 455.20 816.07 463.84
  Q 813.27 465.65 809.79 465.75
  Q 809.32 465.76 808.96 466.08
  C 805.59 469.16 799.36 461.82 798.44 459.06
  C 795.51 450.22 787.47 448.81 792.67 437.22
  Z"
/>
<path fill="#fcfcfc" d="
  M 715.43 443.10
  C 722.97 452.11 707.96 458.87 706.92 448.94
  C 706.49 444.87 712.42 439.50 715.43 443.10
  Z"
/>
<path fill="#60605c" fill-opacity="0.631" d="
  M 702.55 495.65
  Q 700.26 497.81 696.66 498.51
  C 694.20 498.99 691.15 497.29 688.99 498.02
  C 681.15 500.67 677.48 496.56 671.12 493.58
  Q 671.66 492.97 672.50 493.25
  Q 687.71 498.41 702.55 495.65
  Z"
/>
<path fill="#adaba8" fill-opacity="0.875" d="
  M 726.49 506.89
  Q 722.36 513.39 715.93 516.91
  C 712.95 518.54 708.50 519.41 704.70 520.85
  C 695.36 524.41 686.56 524.99 676.74 522.10
  A 0.44 0.44 0.0 0 1 676.70 521.27
  L 681.50 519.27
  L 685.79 518.94
  Q 691.55 519.51 697.35 519.80
  C 705.10 520.20 711.28 518.31 717.78 514.78
  Q 718.94 514.15 718.87 512.93
  L 726.49 506.89
  Z"
/>
<path fill="#60605c" fill-opacity="0.631" d="
  M 718.87 512.93
  Q 718.94 514.15 717.78 514.78
  C 711.28 518.31 705.10 520.20 697.35 519.80
  Q 691.55 519.51 685.79 518.94
  C 684.88 513.08 685.61 508.92 692.22 510.46
  Q 695.87 511.31 696.77 516.21
  Q 697.03 517.62 698.46 517.68
  Q 708.60 518.06 718.87 512.93
  Z"
/>
<path fill="#000000" d="
  M 771.06 575.12
  Q 746.78 574.08 730.98 557.22
  L 725.71 548.82
  Q 725.45 548.40 725.51 547.90
  Q 725.72 546.15 726.88 544.90
  C 733.80 537.47 738.70 546.73 742.95 551.05
  C 761.90 570.27 791.87 563.16 800.99 537.75
  C 802.14 534.53 803.86 528.79 806.64 528.01
  C 814.51 525.80 815.69 533.53 813.91 539.33
  Q 804.32 570.49 771.06 575.12
  Z"
/>
<path fill="#ffd425" d="
  M 520.69 615.56
  Q 518.67 614.13 518.44 612.01
  Q 514.16 571.73 496.87 538.34
  C 494.95 534.63 495.65 531.67 500.15 531.31
  C 504.48 530.96 506.59 533.56 508.48 537.39
  C 511.24 542.95 513.97 549.06 516.77 554.06
  Q 546.69 607.46 604.36 629.84
  Q 641.64 644.31 681.24 648.09
  A 1.64 1.63 -88.4 0 1 682.71 649.65
  Q 683.13 660.45 683.00 671.75
  C 682.96 675.57 681.77 677.26 677.75 676.76
  Q 591.73 666.11 520.69 615.56
  Z"
/>
<path fill="#ffc022" d="
  M 730.98 557.22
  Q 746.78 574.08 771.06 575.12
  Q 777.25 582.03 786.16 579.54
  C 789.24 578.68 792.04 576.45 794.85 574.60
  A 0.75 0.74 -35.7 0 1 795.84 574.76
  L 797.27 576.56
  Q 797.65 577.03 798.25 577.05
  Q 805.62 577.34 812.13 580.60
  C 814.09 581.58 814.64 583.19 815.35 585.09
  A 1.28 1.27 -27.1 0 0 817.26 585.70
  L 819.67 584.08
  Q 820.20 583.73 820.76 584.02
  L 826.01 586.68
  A 2.41 2.41 0.0 0 0 829.12 585.84
  Q 832.64 580.44 834.39 574.31
  C 835.98 568.71 838.18 565.69 843.01 563.02
  Q 845.16 561.83 846.46 560.38
  Q 852.11 554.10 859.03 548.94
  C 836.85 601.80 782.88 630.03 728.06 634.32
  Q 659.05 639.73 596.99 610.19
  C 569.66 597.19 547.48 577.38 531.52 551.55
  Q 534.45 551.04 537.01 549.58
  C 539.85 547.97 540.43 545.34 544.94 546.31
  Q 562.49 550.06 580.36 550.49
  Q 581.73 550.53 600.12 549.91
  Q 616.81 549.34 633.36 551.56
  C 653.82 554.29 673.59 555.46 694.25 554.95
  Q 702.41 554.74 730.98 557.22
  Z"
/>
<path fill="#ffd425" d="
  M 510.74 793.82
  Q 510.72 794.45 510.14 795.03
  Q 509.86 795.31 509.47 795.31
  Q 502.29 795.39 495.56 793.02
  A 1.77 1.76 -9.1 0 1 494.78 792.46
  C 491.69 788.58 488.23 790.77 485.61 787.56
  C 482.63 783.91 479.18 781.93 474.59 781.00
  Q 472.08 780.49 471.06 779.69
  Q 450.22 763.27 428.68 747.77
  Q 422.26 743.15 415.92 735.59
  C 406.52 724.35 394.93 724.37 381.72 721.54
  C 370.94 719.23 366.72 721.73 358.39 727.47
  A 0.77 0.77 0.0 0 1 357.23 727.08
  L 355.76 722.79
  Q 355.52 722.09 354.78 722.17
  C 351.64 722.52 350.85 724.75 351.70 727.66
  Q 353.01 732.14 350.87 736.07
  C 332.01 710.74 317.47 681.49 310.25 650.83
  Q 306.86 636.44 305.97 625.98
  Q 304.80 612.15 318.38 607.31
  Q 318.81 607.15 319.25 607.30
  L 346.86 616.63
  A 1.08 0.99 -10.4 0 1 347.24 616.87
  L 349.24 618.86
  Q 349.60 619.23 349.80 619.71
  C 369.08 667.26 396.83 708.39 435.50 742.24
  Q 470.05 772.49 510.74 793.82
  Z"
/>
<path fill="#ffd425" d="
  M 515.72 746.03
  C 470.29 718.39 432.63 684.07 406.61 638.02
  C 405.90 636.76 404.16 634.02 404.10 632.50
  A 1.66 1.66 0.0 0 1 406.08 630.81
  Q 442.90 637.91 479.26 644.38
  C 482.87 645.03 488.34 646.88 490.72 648.51
  C 500.71 655.32 511.22 662.58 521.07 668.42
  Q 587.80 707.96 665.00 719.40
  A 2.79 2.79 0.0 0 1 667.23 721.26
  Q 667.56 722.23 666.74 723.36
  Q 665.82 724.62 665.79 724.67
  Q 645.78 757.24 617.07 780.07
  C 612.88 783.41 608.06 783.49 602.60 782.18
  Q 557.25 771.30 515.72 746.03
  Z"
/>
<path fill="#ffc022" d="
  M 329.40 826.15
  C 270.65 800.57 246.23 738.23 270.74 679.28
  A 0.94 0.94 0.0 0 1 272.43 679.17
  Q 273.17 680.45 273.84 682.22
  Q 308.93 775.66 386.91 838.68
  A 1.06 1.06 0.0 0 1 386.17 840.56
  C 366.66 839.20 347.30 833.94 329.40 826.15
  Z"
/>
<path fill="#ffc022" d="
  M 510.74 793.82
  L 552.78 814.22
  A 0.52 0.51 -44.5 0 1 552.77 815.15
  Q 515.06 832.91 473.69 837.65
  Q 467.30 838.38 462.18 835.56
  Q 394.88 798.56 350.87 736.07
  Q 353.01 732.14 351.70 727.66
  C 350.85 724.75 351.64 722.52 354.78 722.17
  Q 355.52 722.09 355.76 722.79
  L 357.23 727.08
  A 0.77 0.77 0.0 0 0 358.39 727.47
  C 366.72 721.73 370.94 719.23 381.72 721.54
  C 394.93 724.37 406.52 724.35 415.92 735.59
  Q 422.26 743.15 428.68 747.77
  Q 450.22 763.27 471.06 779.69
  Q 472.08 780.49 474.59 781.00
  C 479.18 781.93 482.63 783.91 485.61 787.56
  C 488.23 790.77 491.69 788.58 494.78 792.46
  A 1.77 1.76 -9.1 0 0 495.56 793.02
  Q 502.29 795.39 509.47 795.31
  Q 509.86 795.31 510.14 795.03
  Q 510.72 794.45 510.74 793.82
  Z"
/>
<path fill="#000000" d="
  M 445.08 1082.23
  A 0.89 0.88 -31.2 0 0 446.57 1082.59
  C 448.59 1080.47 451.60 1074.50 454.79 1075.32
  A 1.77 1.76 -59.3 0 1 455.55 1078.32
  C 443.20 1089.77 456.51 1095.77 466.15 1097.08
  A 0.56 0.56 0.0 0 1 466.19 1098.18
  C 459.56 1099.65 449.66 1099.17 447.96 1090.75
  C 447.60 1088.99 446.35 1087.77 444.73 1089.24
  C 441.99 1091.72 445.94 1094.88 443.44 1098.40
  Q 442.65 1099.52 442.15 1099.35
  A 2.41 2.40 6.2 0 1 440.53 1097.34
  Q 438.77 1081.83 439.34 1066.56
  C 439.44 1063.76 445.54 1062.86 445.52 1068.09
  C 445.51 1072.50 443.92 1078.18 445.08 1082.23
  Z"
/>
<rect fill="#000000" x="-2.33" y="-16.98" transform="translate(242.04,1081.50) rotate(-0.9)" width="4.66" height="33.96" rx="1.06"/>
<path fill="#000000" d="
  M 621.72 1088.33
  C 609.70 1084.95 611.61 1070.14 622.77 1067.59
  Q 629.17 1066.13 632.81 1071.43
  Q 639.91 1081.78 630.76 1088.45
  C 627.48 1090.84 624.88 1096.55 622.29 1100.02
  A 0.73 0.73 0.0 0 1 621.00 1099.40
  L 623.23 1091.00
  A 2.19 2.18 -74.5 0 0 621.72 1088.33
  Z
  M 624.5215 1084.7200
  A 6.59 4.98 89.9 0 0 629.4900 1078.1213
  A 6.59 4.98 89.9 0 0 624.4985 1071.5400
  A 6.59 4.98 89.9 0 0 619.5300 1078.1387
  A 6.59 4.98 89.9 0 0 624.5215 1084.7200
  Z"
/>
<path fill="#000000" d="
  M 724.13 1098.86
  C 716.51 1100.41 709.03 1097.91 709.70 1088.72
  A 1.13 1.07 -18.4 0 1 710.12 1087.93
  C 716.43 1082.94 711.15 1079.66 712.47 1074.42
  C 714.81 1065.09 729.03 1065.02 729.96 1074.77
  C 730.19 1077.14 729.18 1079.51 728.49 1081.91
  Q 728.35 1082.41 728.56 1082.89
  C 731.50 1089.48 734.06 1096.85 724.13 1098.86
  Z
  M 723.26 1072.81
  Q 720.47 1070.57 717.35 1072.21
  A 1.39 1.38 84.0 0 0 716.65 1073.08
  Q 715.99 1075.50 716.93 1077.86
  A 1.91 1.90 -25.1 0 0 719.61 1078.82
  Q 721.94 1077.55 723.56 1075.50
  Q 724.75 1074.01 723.26 1072.81
  Z
  M 715.49 1087.69
  C 711.74 1095.11 721.53 1099.33 726.14 1092.57
  C 728.91 1088.49 719.31 1080.12 715.49 1087.69
  Z"
/>
<path fill="#000000" d="
  M 757.64 1092.26
  A 1.62 1.61 13.7 0 1 756.40 1090.22
  Q 756.90 1088.48 757.95 1086.90
  Q 763.16 1079.07 768.53 1071.33
  Q 770.91 1067.90 774.51 1068.50
  C 778.73 1069.20 775.35 1077.78 775.42 1080.53
  C 775.49 1083.34 777.11 1089.23 781.21 1088.18
  C 785.55 1087.06 783.26 1076.16 784.64 1072.56
  C 786.71 1067.15 794.04 1067.23 798.67 1068.38
  C 809.17 1071.00 795.57 1081.79 801.71 1086.49
  C 803.58 1087.93 804.92 1087.19 806.16 1085.43
  Q 811.48 1077.89 816.47 1070.15
  Q 819.52 1065.43 823.37 1069.07
  A 1.53 1.53 0.0 0 1 823.13 1071.48
  L 817.29 1075.12
  A 1.72 1.72 0.0 0 0 817.54 1078.17
  C 822.14 1080.09 827.02 1083.78 827.94 1088.79
  C 828.99 1094.58 824.21 1098.83 818.71 1100.08
  C 812.09 1101.57 809.41 1096.92 806.43 1092.29
  A 1.50 1.50 0.0 0 0 803.78 1092.53
  Q 800.22 1101.13 790.77 1099.54
  C 787.17 1098.94 785.17 1098.90 783.96 1095.37
  Q 782.30 1090.52 776.70 1092.01
  Q 776.24 1092.13 776.00 1092.54
  C 774.76 1094.66 776.29 1097.86 774.66 1099.13
  A 1.40 1.40 0.0 0 1 772.48 1097.55
  C 773.47 1094.76 772.67 1092.30 769.61 1091.59
  C 765.83 1090.71 761.85 1093.07 757.64 1092.26
  Z
  M 792.3242 1078.7896
  A 3.85 3.31 95.9 0 0 796.0125 1075.3002
  A 3.85 3.31 95.9 0 0 793.1158 1071.1304
  A 3.85 3.31 95.9 0 0 789.4275 1074.6198
  A 3.85 3.31 95.9 0 0 792.3242 1078.7896
  Z
  M 769.86 1088.83
  L 771.88 1079.89
  A 0.86 0.86 0.0 0 0 771.23 1078.87
  L 771.06 1078.83
  A 5.63 5.38 12.7 0 0 764.38 1082.84
  L 764.36 1082.96
  A 5.63 5.38 12.7 0 0 768.67 1089.44
  L 768.83 1089.48
  A 0.86 0.86 0.0 0 0 769.86 1088.83
  Z
  M 822.66 1090.11
  A 6.21 6.21 0.0 0 0 816.45 1083.90
  A 6.21 6.21 0.0 0 0 810.24 1090.11
  A 6.21 6.21 0.0 0 0 816.45 1096.32
  A 6.21 6.21 0.0 0 0 822.66 1090.11
  Z
  M 798.6760 1091.4418
  A 6.10 5.35 12.9 0 0 793.9244 1084.8650
  A 6.10 5.35 12.9 0 0 786.7840 1088.7182
  A 6.10 5.35 12.9 0 0 791.5356 1095.2950
  A 6.10 5.35 12.9 0 0 798.6760 1091.4418
  Z"
/>
<path fill="#000000" d="
  M 652.14 1076.39
  C 652.80 1070.73 644.84 1072.23 641.78 1073.04
  A 0.62 0.62 0.0 0 1 641.14 1072.05
  C 647.66 1064.02 664.48 1067.98 657.03 1079.69
  A 2.60 2.59 -45.9 0 0 657.07 1082.52
  C 663.95 1092.74 658.78 1099.38 647.56 1100.14
  Q 641.54 1100.55 640.46 1095.09
  C 640.11 1093.32 640.91 1092.22 642.72 1092.69
  C 646.77 1093.73 646.63 1097.54 652.27 1094.91
  C 659.17 1091.70 651.83 1085.42 648.73 1083.48
  A 2.08 2.07 40.0 0 1 648.44 1080.18
  L 651.69 1077.24
  A 1.34 1.33 -17.4 0 0 652.14 1076.39
  Z"
/>
<path fill="#000000" d="
  M 301.65 1076.15
  A 1.27 1.27 0.0 0 0 303.29 1074.79
  Q 302.90 1071.42 304.80 1068.75
  A 1.47 1.47 0.0 0 1 307.36 1069.05
  L 309.15 1073.53
  A 0.91 0.88 4.0 0 0 309.58 1074.01
  Q 311.29 1074.90 313.24 1074.73
  A 1.33 1.29 57.9 0 1 314.06 1074.93
  Q 317.29 1076.93 315.08 1079.56
  C 313.35 1081.62 308.60 1079.26 308.06 1083.50
  Q 307.22 1090.09 307.51 1092.49
  C 308.05 1096.92 312.00 1095.57 314.13 1097.65
  A 1.41 1.41 0.0 0 1 312.96 1100.06
  C 303.69 1098.82 301.71 1092.40 303.67 1084.29
  A 2.06 2.06 0.0 0 0 302.15 1081.81
  C 298.95 1081.05 293.22 1079.63 292.09 1084.28
  C 290.84 1089.46 290.58 1096.54 297.60 1097.64
  A 0.82 0.82 0.0 0 1 297.81 1099.20
  C 286.98 1104.10 288.48 1089.15 287.90 1083.80
  A 1.35 1.33 -74.6 0 0 287.38 1082.87
  Q 284.85 1080.96 284.41 1077.92
  Q 284.30 1077.22 284.65 1076.60
  L 289.23 1068.32
  A 1.00 1.00 0.0 0 1 291.07 1068.53
  L 292.44 1073.47
  A 3.13 3.12 77.9 0 0 295.92 1075.73
  Q 298.80 1075.29 301.65 1076.15
  Z"
/>
<path fill="#000000" d="
  M 707.72 1078.64
  A 10.72 10.72 0.0 0 1 697.00 1089.36
  A 10.72 10.72 0.0 0 1 686.28 1078.64
  A 10.72 10.72 0.0 0 1 697.00 1067.92
  A 10.72 10.72 0.0 0 1 707.72 1078.64
  Z
  M 693.63 1083.17
  A 2.71 2.71 0.0 0 0 696.72 1083.96
  Q 700.40 1082.50 702.01 1078.91
  A 1.57 1.54 51.2 0 0 702.11 1077.91
  Q 701.12 1073.79 696.76 1072.54
  C 690.13 1070.65 691.56 1080.65 693.63 1083.17
  Z"
/>
<path fill="#000000" d="
  M 389.27 1099.21
  C 381.41 1101.38 378.81 1096.37 379.46 1089.49
  Q 379.71 1086.92 379.27 1085.04
  C 377.83 1078.83 377.54 1074.40 381.18 1068.62
  A 1.32 1.32 0.0 0 1 383.53 1068.86
  L 385.42 1073.91
  A 0.69 0.69 0.0 0 0 385.97 1074.36
  L 389.98 1074.91
  A 1.98 1.98 0.0 0 1 391.58 1077.51
  Q 390.67 1080.19 387.25 1080.96
  C 383.29 1081.87 384.83 1091.55 385.55 1094.14
  C 386.07 1096.07 387.48 1097.02 389.41 1096.42
  A 1.03 1.03 0.0 0 1 390.74 1097.49
  Q 390.63 1098.83 389.27 1099.21
  Z"
/>
<path fill="#000000" d="
  M 678.62 1070.78
  C 677.10 1072.32 667.44 1077.48 673.87 1080.22
  A 1.47 1.43 47.4 0 0 674.82 1080.27
  C 679.41 1078.90 682.06 1085.59 682.82 1088.88
  C 685.72 1101.42 666.39 1102.22 665.07 1095.88
  Q 661.98 1081.00 671.82 1070.29
  C 673.82 1068.12 675.58 1067.62 678.26 1068.84
  A 1.21 1.20 34.6 0 1 678.62 1070.78
  Z
  M 679.34 1089.63
  A 5.94 5.94 0.0 0 0 673.40 1083.69
  A 5.94 5.94 0.0 0 0 667.46 1089.63
  A 5.94 5.94 0.0 0 0 673.40 1095.57
  A 5.94 5.94 0.0 0 0 679.34 1089.63
  Z"
/>
<path fill="#000000" d="
  M 599.16 1077.42
  A 1.87 1.86 31.8 0 0 596.60 1078.02
  L 594.77 1080.92
  A 0.96 0.96 0.0 0 1 593.02 1080.59
  Q 591.13 1070.75 600.58 1068.60
  A 2.09 2.09 0.0 0 1 603.08 1070.18
  C 604.71 1077.44 605.88 1084.17 603.08 1091.54
  C 600.60 1098.04 610.57 1095.06 611.56 1097.19
  A 0.99 0.98 79.5 0 1 610.60 1098.59
  Q 605.20 1098.19 600.39 1099.28
  C 597.33 1099.98 595.25 1099.75 592.63 1098.52
  A 0.93 0.93 0.0 0 1 592.73 1096.79
  L 597.93 1095.05
  A 2.35 2.35 0.0 0 0 599.52 1092.61
  Q 599.02 1087.27 600.58 1081.72
  Q 601.40 1078.82 599.16 1077.42
  Z"
/>
<path fill="#000000" d="
  M 741.81 1076.74
  L 737.52 1077.07
  A 0.89 0.89 0.0 0 1 736.72 1075.67
  C 738.10 1073.71 746.32 1064.74 748.26 1070.26
  C 749.23 1073.04 747.75 1079.10 747.71 1082.01
  Q 747.64 1087.82 748.50 1093.55
  A 2.32 2.31 -3.8 0 0 750.76 1095.52
  Q 753.40 1095.55 755.54 1097.01
  A 0.54 0.54 0.0 0 1 755.55 1097.89
  Q 747.08 1104.21 738.08 1098.75
  A 1.12 1.12 0.0 0 1 738.17 1096.79
  C 740.30 1095.75 743.68 1095.78 743.59 1092.50
  Q 743.41 1085.20 743.17 1077.96
  A 1.27 1.26 -3.0 0 0 741.81 1076.74
  Z"
/>
<path fill="#000000" d="
  M 478.60 1098.09
  C 471.85 1095.47 470.67 1086.97 474.00 1081.27
  Q 477.43 1075.40 484.68 1074.36
  C 487.01 1074.02 489.54 1074.49 489.73 1077.23
  C 490.06 1082.12 482.64 1078.96 480.36 1084.92
  C 477.17 1093.24 481.12 1096.26 488.97 1095.99
  A 0.92 0.92 0.0 0 1 489.74 1097.46
  C 486.74 1101.47 482.20 1099.48 478.60 1098.09
  Z"
/>
<path fill="#000000" d="
  M 220.72 1087.25
  C 218.05 1086.00 218.32 1082.01 218.54 1079.00
  C 219.07 1071.75 235.77 1073.83 231.37 1080.40
  A 0.81 0.80 -64.2 0 1 230.45 1080.73
  C 225.71 1079.24 222.43 1084.18 227.08 1086.15
  C 230.08 1087.42 234.64 1088.35 235.93 1091.76
  Q 236.11 1092.26 235.89 1092.74
  C 233.36 1098.07 225.27 1101.72 220.04 1099.15
  A 0.65 0.64 -39.8 0 1 220.15 1097.95
  C 229.10 1095.39 228.72 1091.00 220.72 1087.25
  Z"
/>
<path fill="#000000" d="
  M 253.20 1098.33
  C 252.09 1096.82 252.59 1094.26 252.87 1092.54
  C 253.65 1087.76 252.97 1084.39 249.41 1080.84
  Q 247.86 1079.29 247.73 1076.99
  Q 247.71 1076.57 247.99 1076.25
  Q 251.45 1072.44 254.13 1076.34
  C 256.51 1079.80 262.47 1094.20 258.71 1098.01
  C 257.51 1099.22 254.49 1100.09 253.20 1098.33
  Z"
/>
<path fill="#000000" d="
  M 366.64 1086.11
  Q 369.73 1088.03 372.63 1089.89
  A 2.55 2.54 23.5 0 1 373.72 1092.64
  Q 371.23 1102.61 360.89 1099.19
  A 1.36 1.36 0.0 0 1 360.50 1096.80
  Q 362.76 1095.10 365.61 1095.42
  Q 366.20 1095.49 366.59 1095.05
  C 370.62 1090.54 364.55 1088.35 361.27 1087.72
  A 1.48 1.43 -13.8 0 1 360.46 1087.25
  C 357.77 1084.17 358.93 1080.36 360.78 1077.20
  C 363.01 1073.37 370.38 1073.31 370.96 1078.45
  A 2.05 2.04 88.5 0 1 368.81 1080.72
  C 364.71 1080.48 362.85 1083.74 366.64 1086.11
  Z"
/>
<path fill="#000000" d="
  M 344.28 1099.66
  A 1.58 1.57 9.6 0 1 342.92 1097.76
  C 343.50 1095.12 344.30 1092.82 344.22 1090.07
  C 344.08 1085.01 343.32 1074.53 350.91 1074.87
  C 353.49 1074.98 355.17 1077.34 356.24 1079.40
  A 0.81 0.81 0.0 0 1 355.40 1080.58
  C 353.05 1080.22 347.84 1077.39 347.57 1082.06
  Q 347.37 1085.37 347.52 1095.92
  C 347.55 1098.24 346.94 1099.97 344.28 1099.66
  Z"
/>
<path fill="#000000" d="
  M 403.9844 1100.3647
  A 12.83 11.05 93.6 0 1 393.7618 1086.8662
  A 12.83 11.05 93.6 0 1 405.5956 1074.7553
  A 12.83 11.05 93.6 0 1 415.8182 1088.2538
  A 12.83 11.05 93.6 0 1 403.9844 1100.3647
  Z
  M 402.35 1096.65
  C 408.36 1098.00 418.39 1085.38 404.65 1081.39
  C 396.84 1079.11 399.41 1092.42 400.97 1095.57
  A 2.03 2.02 -6.9 0 0 402.35 1096.65
  Z"
/>
<path fill="#000000" d="
  M 523.78 1095.47
  C 523.51 1100.28 518.90 1098.79 519.04 1094.49
  Q 519.40 1083.87 520.53 1077.50
  C 521.21 1073.67 529.67 1075.02 532.16 1075.71
  C 534.87 1076.47 535.94 1076.10 538.34 1075.21
  C 542.99 1073.48 546.44 1075.92 548.50 1080.21
  Q 552.75 1089.05 550.24 1097.46
  C 549.43 1100.16 545.06 1100.01 543.72 1098.00
  C 541.47 1094.62 545.34 1081.97 540.20 1081.33
  A 2.72 2.72 0.0 0 0 537.27 1083.20
  C 535.53 1088.64 539.25 1097.46 532.63 1099.67
  A 0.68 0.68 0.0 0 1 531.82 1099.35
  Q 531.11 1098.04 531.52 1096.50
  Q 533.43 1089.25 532.73 1085.26
  C 532.24 1082.46 528.06 1076.56 524.95 1080.44
  C 523.30 1082.49 523.96 1092.34 523.78 1095.47
  Z"
/>
<path fill="#000000" d="
  M 280.99 1098.70
  C 277.70 1098.92 263.82 1101.39 264.08 1095.50
  Q 264.48 1086.21 262.94 1076.76
  A 1.48 1.48 0.0 0 1 264.39 1075.05
  C 268.41 1075.03 269.26 1078.47 269.21 1082.02
  Q 269.13 1087.10 270.01 1091.24
  C 270.49 1093.54 272.99 1097.20 275.48 1094.13
  A 1.02 1.02 0.0 0 0 275.72 1093.53
  L 277.09 1076.29
  A 1.40 1.40 0.0 0 1 279.15 1075.17
  C 280.33 1075.80 280.95 1077.06 281.15 1078.46
  Q 282.49 1087.74 282.70 1096.82
  A 1.84 1.84 0.0 0 1 280.99 1098.70
  Z"
/>
<path fill="#000000" d="
  M 324.81 1099.23
  C 315.87 1096.00 313.00 1078.14 323.85 1075.63
  C 331.91 1073.77 336.43 1076.26 337.17 1084.96
  A 2.04 2.04 0.0 0 1 335.28 1087.16
  L 323.88 1087.96
  A 1.80 1.80 0.0 0 0 322.29 1090.30
  C 324.45 1096.94 329.06 1096.22 334.21 1093.85
  A 0.91 0.91 0.0 0 1 335.48 1094.52
  C 336.49 1100.31 328.20 1100.45 324.81 1099.23
  Z
  M 327.5378 1084.2832
  A 2.37 1.95 112.9 0 0 330.2563 1082.8588
  A 2.37 1.95 112.9 0 0 329.3822 1079.9168
  A 2.37 1.95 112.9 0 0 326.6637 1081.3412
  A 2.37 1.95 112.9 0 0 327.5378 1084.2832
  Z"
/>
<path fill="#000000" d="
  M 503.5780 1099.7950
  A 12.43 11.48 94.3 0 1 493.0623 1086.5392
  A 12.43 11.48 94.3 0 1 505.4420 1075.0050
  A 12.43 11.48 94.3 0 1 515.9577 1088.2608
  A 12.43 11.48 94.3 0 1 503.5780 1099.7950
  Z
  M 502.59 1096.41
  A 1.74 1.73 45.4 0 0 504.94 1096.43
  C 509.29 1092.52 513.12 1083.86 504.69 1081.52
  Q 502.30 1080.86 501.21 1082.62
  Q 496.32 1090.57 502.59 1096.41
  Z"
/>
<path fill="#000000" d="
  M 425.53 1094.07
  Q 430.52 1095.77 435.24 1093.34
  A 1.21 1.21 0.0 0 1 436.99 1094.55
  C 436.40 1099.81 430.74 1099.17 426.98 1099.40
  C 422.09 1099.70 418.77 1097.75 420.28 1091.98
  C 421.27 1088.17 419.49 1083.17 420.28 1079.81
  C 421.91 1072.87 435.91 1074.17 433.62 1079.66
  C 432.18 1083.09 428.27 1080.11 425.64 1083.05
  Q 421.58 1087.59 424.39 1093.08
  A 2.05 2.03 -3.7 0 0 425.53 1094.07
  Z"
/>
<path fill="#000000" d="
  M 566.77 1087.18
  Q 565.92 1086.81 565.98 1085.89
  Q 566.26 1080.80 570.78 1078.76
  A 1.01 1.01 0.0 0 1 572.20 1079.58
  C 572.51 1082.69 572.12 1089.52 566.77 1087.18
  Z"
/>
<ellipse fill="#000000" cx="0.00" cy="0.00" transform="translate(695.46,1096.67) rotate(111.6)" rx="3.84" ry="1.96"/>
</svg>
